<?xml version="1.0" encoding="UTF-8"?>
<svg xmlns="http://www.w3.org/2000/svg" xmlns:xlink="http://www.w3.org/1999/xlink" width="612pt" height="792pt" viewBox="0 0 612 792" version="1.1">
<g id="surface1">
<path style=" stroke:none;fill-rule:evenodd;fill:rgb(99.21875%,4.704285%,8.227539%);fill-opacity:1;" d="M 386.152344 389.101563 C 386.152344 387.152344 387.691406 385.5625 389.535156 385.5625 C 391.433594 385.5625 392.921875 387.152344 392.921875 389.101563 C 392.921875 391.050781 391.433594 392.640625 389.535156 392.640625 C 387.691406 392.691406 386.152344 391.101563 386.152344 389.101563 Z M 389.535156 391.871094 C 390.972656 391.871094 392.101563 390.640625 392.101563 389.152344 C 392.101563 387.664063 390.921875 386.433594 389.535156 386.433594 C 388.101563 386.433594 386.972656 387.664063 386.972656 389.152344 C 386.972656 390.640625 388.101563 391.871094 389.535156 391.871094 Z M 389.074219 390.691406 L 388.355469 390.691406 L 388.355469 387.5625 L 389.640625 387.5625 C 389.894531 387.5625 390.203125 387.5625 390.410156 387.714844 C 390.664063 387.871094 390.769531 388.175781 390.769531 388.484375 C 390.769531 388.84375 390.5625 389.152344 390.253906 389.253906 L 390.820313 390.640625 L 390.050781 390.640625 L 389.589844 389.40625 L 389.074219 389.40625 Z M 389.074219 388.945313 L 389.484375 388.945313 C 389.640625 388.945313 389.792969 388.945313 389.894531 388.894531 C 389.996094 388.84375 390.050781 388.691406 390.050781 388.535156 C 390.050781 388.433594 389.996094 388.28125 389.894531 388.230469 C 389.792969 388.175781 389.589844 388.175781 389.484375 388.175781 L 389.125 388.175781 L 389.074219 388.945313 "/>
<path style=" stroke:none;fill-rule:evenodd;fill:rgb(99.21875%,4.704285%,8.227539%);fill-opacity:1;" d="M 337.675781 365.453125 L 336.753906 371.507813 C 334.753906 370.429688 333.265625 370.019531 331.675781 370.019531 C 327.46875 370.019531 324.492188 374.328125 324.492188 380.433594 C 324.492188 384.636719 326.492188 387.203125 329.777344 387.203125 C 331.160156 387.203125 332.699219 386.742188 334.597656 385.765625 L 333.621094 392.128906 C 331.519531 392.742188 330.1875 392.949219 328.597656 392.949219 C 322.492188 392.949219 318.695313 388.332031 318.695313 380.945313 C 318.695313 370.992188 323.929688 364.015625 331.46875 364.015625 C 332.441406 364.015625 333.316406 364.117188 334.035156 364.324219 L 336.394531 364.941406 C 337.007813 365.195313 337.164063 365.246094 337.675781 365.453125 "/>
<path style=" stroke:none;fill-rule:evenodd;fill:rgb(99.21875%,4.704285%,8.227539%);fill-opacity:1;" d="M 318.851563 369.609375 C 318.695313 369.558594 318.492188 369.558594 318.285156 369.558594 C 316.4375 369.558594 315.363281 370.53125 313.617188 373.25 L 314.128906 369.8125 L 309 369.8125 L 305.511719 392.433594 L 311.207031 392.433594 C 313.257813 378.585938 313.769531 376.226563 316.488281 376.226563 C 316.644531 376.226563 316.695313 376.226563 316.898438 376.226563 C 317.414063 373.507813 318.078125 371.507813 319.054688 369.660156 L 318.851563 369.609375 "/>
<path style=" stroke:none;fill-rule:evenodd;fill:rgb(99.21875%,4.704285%,8.227539%);fill-opacity:1;" d="M 284.941406 392.128906 C 283.402344 392.640625 282.171875 392.894531 280.890625 392.894531 C 278.019531 392.894531 276.429688 391.152344 276.429688 387.921875 C 276.429688 387.304688 276.480469 386.585938 276.582031 385.867188 L 276.941406 383.664063 L 277.195313 381.867188 L 279.660156 366.425781 L 285.300781 366.425781 L 284.636719 369.761719 L 287.558594 369.761719 L 286.738281 375.25 L 283.863281 375.25 L 282.378906 384.6875 C 282.328125 385.097656 282.273438 385.40625 282.273438 385.613281 C 282.273438 386.792969 282.890625 387.304688 284.226563 387.304688 C 284.890625 387.304688 285.351563 387.253906 285.761719 387.101563 L 284.941406 392.128906 "/>
<path style=" stroke:none;fill-rule:evenodd;fill:rgb(99.21875%,4.704285%,8.227539%);fill-opacity:1;" d="M 262.578125 376.941406 C 262.578125 379.816406 263.910156 381.765625 266.886719 383.253906 C 269.144531 384.382813 269.554688 384.738281 269.554688 385.765625 C 269.554688 387.152344 268.527344 387.816406 266.320313 387.816406 C 264.628906 387.816406 263.089844 387.5625 261.242188 386.894531 L 260.472656 392.128906 L 260.730469 392.179688 L 261.757813 392.382813 C 262.117188 392.433594 262.578125 392.535156 263.242188 392.589844 C 264.578125 392.691406 265.65625 392.792969 266.371094 392.792969 C 272.324219 392.792969 275.09375 390.382813 275.09375 385.253906 C 275.09375 382.175781 273.964844 380.328125 271.09375 378.945313 C 268.734375 377.816406 268.476563 377.558594 268.476563 376.480469 C 268.476563 375.25 269.398438 374.636719 271.246094 374.636719 C 272.375 374.636719 273.863281 374.789063 275.300781 374.992188 L 276.121094 369.761719 C 274.632813 369.503906 272.425781 369.300781 271.144531 369.300781 C 264.730469 369.300781 262.527344 372.738281 262.578125 376.941406 "/>
<path style=" stroke:none;fill-rule:evenodd;fill:rgb(99.21875%,4.704285%,8.227539%);fill-opacity:1;" d="M 382.867188 392.382813 L 377.480469 392.382813 L 377.738281 390.179688 C 376.199219 391.921875 374.558594 392.691406 372.507813 392.691406 C 368.351563 392.691406 365.632813 388.945313 365.632813 383.304688 C 365.632813 375.761719 369.839844 369.402344 374.867188 369.402344 C 377.070313 369.402344 378.714844 370.378906 380.304688 372.480469 L 381.535156 364.527344 L 387.125 364.527344 Z M 374.507813 387.101563 C 377.175781 387.101563 379.019531 383.972656 379.019531 379.457031 C 379.019531 376.585938 377.945313 374.992188 375.992188 374.992188 C 373.429688 374.992188 371.582031 378.175781 371.582031 382.585938 C 371.582031 385.5625 372.558594 387.101563 374.507813 387.101563 "/>
<path style=" stroke:none;fill-rule:evenodd;fill:rgb(99.21875%,4.704285%,8.227539%);fill-opacity:1;" d="M 302.894531 391.921875 C 300.945313 392.535156 299.101563 392.84375 297.050781 392.84375 C 290.738281 392.84375 287.40625 389.355469 287.40625 382.6875 C 287.40625 374.890625 291.609375 369.199219 297.304688 369.199219 C 301.972656 369.199219 304.949219 372.429688 304.949219 377.457031 C 304.949219 379.097656 304.742188 380.738281 304.230469 383.046875 L 292.945313 383.046875 C 292.894531 383.40625 292.894531 383.5625 292.894531 383.765625 C 292.894531 386.433594 294.585938 387.765625 297.871094 387.765625 C 299.871094 387.765625 301.71875 387.304688 303.769531 386.332031 Z M 299.714844 378.429688 C 299.769531 377.96875 299.769531 377.558594 299.769531 377.300781 C 299.769531 375.453125 298.792969 374.378906 297.101563 374.378906 C 295.304688 374.378906 294.023438 375.816406 293.507813 378.429688 L 299.714844 378.429688 "/>
<path style=" stroke:none;fill-rule:evenodd;fill:rgb(99.21875%,4.704285%,8.227539%);fill-opacity:1;" d="M 239.800781 392.382813 L 234.160156 392.382813 L 237.390625 370.992188 L 230.105469 392.382813 L 226.257813 392.382813 L 225.796875 371.148438 L 222.359375 392.382813 L 217.078125 392.382813 L 221.488281 364.582031 L 229.644531 364.582031 L 229.851563 381.816406 L 235.390625 364.582031 L 244.214844 364.582031 L 239.800781 392.382813 "/>
<path style=" stroke:none;fill-rule:evenodd;fill:rgb(99.21875%,4.704285%,8.227539%);fill-opacity:1;" d="M 254.421875 382.328125 C 253.804688 382.277344 253.550781 382.226563 253.140625 382.226563 C 249.90625 382.226563 248.316406 383.40625 248.316406 385.664063 C 248.316406 387.050781 249.136719 387.972656 250.367188 387.972656 C 252.625 387.972656 254.320313 385.664063 254.421875 382.328125 Z M 258.523438 392.382813 L 253.804688 392.382813 L 253.90625 390.023438 C 252.472656 391.921875 250.574219 392.742188 247.957031 392.742188 C 244.878906 392.742188 242.777344 390.230469 242.777344 386.585938 C 242.777344 381.046875 246.46875 377.867188 252.730469 377.867188 C 253.394531 377.867188 254.214844 377.917969 255.035156 378.019531 C 255.191406 377.25 255.242188 376.941406 255.242188 376.53125 C 255.242188 375.046875 254.269531 374.480469 251.601563 374.480469 C 250.011719 374.480469 248.164063 374.738281 246.878906 375.148438 L 246.164063 375.402344 L 245.648438 375.558594 L 246.417969 370.480469 C 249.238281 369.609375 251.136719 369.25 253.191406 369.25 C 258.0625 369.25 260.628906 371.558594 260.628906 375.867188 C 260.628906 376.996094 260.523438 377.816406 260.164063 380.378906 L 259.039063 388.433594 L 258.832031 389.871094 L 258.679688 390.996094 L 258.578125 391.820313 L 258.523438 392.382813 "/>
<path style=" stroke:none;fill-rule:evenodd;fill:rgb(99.21875%,4.704285%,8.227539%);fill-opacity:1;" d="M 347.472656 382.328125 C 346.910156 382.277344 346.601563 382.226563 346.191406 382.226563 C 342.960938 382.226563 341.316406 383.40625 341.316406 385.664063 C 341.316406 387.050781 342.140625 387.972656 343.371094 387.972656 C 345.679688 387.972656 347.371094 385.664063 347.472656 382.328125 Z M 351.578125 392.382813 L 346.859375 392.382813 L 346.960938 390.023438 C 345.523438 391.921875 343.625 392.742188 341.011719 392.742188 C 337.933594 392.742188 335.828125 390.230469 335.828125 386.585938 C 335.828125 381.046875 339.523438 377.867188 345.78125 377.867188 C 346.394531 377.867188 347.269531 377.917969 348.089844 378.019531 C 348.242188 377.25 348.292969 376.941406 348.292969 376.53125 C 348.292969 375.046875 347.320313 374.480469 344.652344 374.480469 C 343.0625 374.480469 341.214844 374.738281 339.933594 375.148438 L 339.113281 375.351563 L 338.597656 375.507813 L 339.367188 370.429688 C 342.191406 369.558594 344.089844 369.199219 346.140625 369.199219 C 351.011719 369.199219 353.578125 371.507813 353.578125 375.816406 C 353.578125 376.941406 353.476563 377.765625 353.117188 380.328125 L 351.9375 388.332031 L 351.78125 389.769531 L 351.628906 390.894531 L 351.527344 391.664063 L 351.578125 392.382813 "/>
<path style=" stroke:none;fill-rule:evenodd;fill:rgb(99.21875%,4.704285%,8.227539%);fill-opacity:1;" d="M 367.429688 369.609375 C 367.273438 369.558594 367.070313 369.558594 366.863281 369.558594 C 365.015625 369.558594 363.9375 370.53125 362.195313 373.25 L 362.710938 369.8125 L 357.578125 369.8125 L 354.089844 392.433594 L 359.785156 392.433594 C 361.835938 378.585938 362.347656 376.226563 365.066406 376.226563 C 365.222656 376.226563 365.222656 376.226563 365.480469 376.226563 C 365.992188 373.507813 366.710938 371.507813 367.632813 369.660156 L 367.429688 369.609375 "/>
<path style=" stroke:none;fill-rule:evenodd;fill:rgb(95.3125%,68.164063%,7.054138%);fill-opacity:1;" d="M 343.625 414.390625 C 343.625 419.519531 342.035156 422.546875 339.523438 422.546875 C 337.675781 422.597656 336.597656 420.546875 336.597656 417.519531 C 336.597656 413.929688 338.238281 409.824219 340.804688 409.824219 C 342.90625 409.824219 343.625 412.03125 343.625 414.390625 Z M 349.21875 414.441406 C 349.21875 408.746094 346.394531 404.285156 341.113281 404.285156 C 335.007813 404.285156 331.058594 409.671875 331.058594 417.621094 C 331.058594 423.316406 333.417969 427.984375 339.164063 427.984375 C 344.960938 427.984375 349.21875 423.878906 349.21875 414.441406 "/>
<path style=" stroke:none;fill-rule:evenodd;fill:rgb(95.3125%,68.164063%,7.054138%);fill-opacity:1;" d="M 332.855469 400.335938 L 331.980469 406.386719 C 330.085938 405.3125 328.75 404.898438 327.261719 404.898438 C 323.3125 404.898438 320.542969 409.210938 320.542969 415.3125 C 320.542969 419.519531 322.390625 422.085938 325.46875 422.085938 C 326.800781 422.085938 328.238281 421.621094 329.980469 420.648438 L 329.058594 427.007813 C 327.109375 427.625 325.824219 427.828125 324.339844 427.828125 C 318.644531 427.828125 315.054688 423.214844 315.054688 415.824219 C 315.054688 405.875 319.976563 398.898438 327.007813 398.898438 C 327.929688 398.898438 328.699219 399 329.367188 399.207031 L 331.519531 399.820313 C 332.238281 400.027344 332.390625 400.078125 332.855469 400.335938 "/>
<path style=" stroke:none;fill-rule:evenodd;fill:rgb(95.3125%,68.164063%,7.054138%);fill-opacity:1;" d="M 297.816406 404.4375 C 297.664063 404.386719 297.460938 404.386719 297.253906 404.386719 C 295.511719 404.386719 294.535156 405.363281 292.894531 408.078125 L 293.40625 404.644531 L 288.636719 404.644531 L 285.402344 427.265625 L 290.6875 427.265625 C 292.585938 413.414063 293.097656 411.054688 295.613281 411.054688 C 295.765625 411.054688 295.765625 411.054688 296.023438 411.105469 C 296.484375 408.386719 297.152344 406.386719 298.023438 404.539063 L 297.816406 404.4375 "/>
<path style=" stroke:none;fill-rule:evenodd;fill:rgb(95.3125%,68.164063%,7.054138%);fill-opacity:1;" d="M 366.964844 427.058594 L 361.9375 427.058594 L 362.195313 424.855469 C 360.757813 426.597656 359.21875 427.367188 357.269531 427.367188 C 353.421875 427.367188 350.859375 423.621094 350.859375 417.980469 C 350.859375 410.441406 354.808594 404.078125 359.476563 404.078125 C 361.527344 404.078125 363.117188 405.054688 364.554688 407.207031 L 365.734375 399.257813 L 370.96875 399.257813 Z M 359.117188 421.726563 C 361.632813 421.726563 363.324219 418.597656 363.324219 414.082031 C 363.324219 411.210938 362.347656 409.671875 360.503906 409.671875 C 358.09375 409.671875 356.398438 412.800781 356.398438 417.261719 C 356.398438 420.238281 357.320313 421.726563 359.117188 421.726563 "/>
<path style=" stroke:none;fill-rule:evenodd;fill:rgb(95.3125%,68.164063%,7.054138%);fill-opacity:1;" d="M 248.164063 426.957031 C 246.367188 427.574219 244.625 427.882813 242.726563 427.882813 C 236.828125 427.882813 233.75 424.394531 233.75 417.722656 C 233.75 409.980469 237.699219 404.234375 242.980469 404.234375 C 247.34375 404.234375 250.113281 407.414063 250.113281 412.492188 C 250.113281 414.132813 249.90625 415.773438 249.445313 418.082031 L 238.929688 418.082031 C 238.878906 418.441406 238.878906 418.597656 238.878906 418.800781 C 238.878906 421.417969 240.46875 422.75 243.546875 422.75 C 245.445313 422.75 247.136719 422.289063 249.035156 421.316406 Z M 245.1875 413.464844 C 245.1875 413.003906 245.238281 412.59375 245.238281 412.339844 C 245.238281 410.492188 244.316406 409.414063 242.726563 409.414063 C 241.03125 409.414063 239.851563 410.851563 239.339844 413.464844 L 245.1875 413.464844 "/>
<path style=" stroke:none;fill-rule:evenodd;fill:rgb(95.3125%,68.164063%,7.054138%);fill-opacity:1;" d="M 311.15625 426.957031 C 309.359375 427.574219 307.617188 427.882813 305.71875 427.882813 C 299.769531 427.882813 296.6875 424.394531 296.6875 417.722656 C 296.6875 409.980469 300.640625 404.234375 305.921875 404.234375 C 310.28125 404.234375 313.105469 407.414063 313.105469 412.492188 C 313.105469 414.132813 312.898438 415.773438 312.4375 418.082031 L 301.921875 418.082031 C 301.871094 418.441406 301.871094 418.597656 301.871094 418.800781 C 301.871094 421.417969 303.460938 422.75 306.539063 422.75 C 308.4375 422.75 310.128906 422.289063 312.027344 421.316406 Z M 308.179688 413.464844 C 308.230469 413.003906 308.230469 412.59375 308.230469 412.339844 C 308.230469 410.492188 307.308594 409.414063 305.71875 409.414063 C 304.023438 409.414063 302.84375 410.851563 302.332031 413.464844 L 308.179688 413.464844 "/>
<path style=" stroke:none;fill-rule:evenodd;fill:rgb(95.3125%,68.164063%,7.054138%);fill-opacity:1;" d="M 385.023438 426.957031 C 383.175781 427.574219 381.433594 427.882813 379.585938 427.882813 C 373.6875 427.882813 370.558594 424.394531 370.558594 417.722656 C 370.558594 409.980469 374.507813 404.234375 379.84375 404.234375 C 384.203125 404.234375 386.972656 407.414063 386.972656 412.492188 C 386.972656 414.132813 386.765625 415.773438 386.304688 418.082031 L 375.789063 418.082031 C 375.738281 418.441406 375.738281 418.597656 375.738281 418.800781 C 375.738281 421.417969 377.328125 422.75 380.40625 422.75 C 382.304688 422.75 383.996094 422.289063 385.894531 421.316406 Z M 382.046875 413.464844 C 382.046875 413.003906 382.097656 412.59375 382.097656 412.339844 C 382.097656 410.492188 381.175781 409.414063 379.585938 409.414063 C 377.890625 409.414063 376.714844 410.851563 376.199219 413.464844 L 382.046875 413.464844 "/>
<path style=" stroke:none;fill-rule:evenodd;fill:rgb(95.3125%,68.164063%,7.054138%);fill-opacity:1;" d="M 232.464844 405.464844 C 231.441406 404.746094 230.003906 404.183594 228.054688 404.183594 C 225.898438 404.183594 224.207031 404.644531 224.207031 406.898438 C 224.207031 410.902344 232.003906 409.414063 232.003906 418.03125 C 232.003906 425.878906 226.875 427.933594 222.207031 427.933594 C 220.15625 427.933594 217.742188 427.265625 216 426.445313 L 217.28125 420.699219 C 218.359375 421.675781 220.464844 422.339844 222.257813 422.339844 C 223.949219 422.339844 226.515625 421.878906 226.515625 418.953125 C 226.515625 414.390625 218.71875 416.082031 218.71875 408.078125 C 218.71875 400.746094 223.285156 398.589844 227.695313 398.589844 C 230.15625 398.589844 232.519531 398.949219 233.851563 399.871094 L 232.464844 405.464844 "/>
<path style=" stroke:none;fill-rule:evenodd;fill:rgb(95.3125%,68.164063%,7.054138%);fill-opacity:1;" d="M 263.65625 426.957031 C 262.578125 427.46875 261.089844 427.828125 258.933594 427.828125 C 254.320313 427.828125 251.445313 423.214844 251.445313 417.570313 C 251.445313 410.183594 255.601563 404.335938 261.703125 404.335938 C 263.039063 404.335938 265.089844 404.898438 266.679688 405.824219 L 265.503906 411.210938 C 264.371094 410.441406 263.191406 409.980469 261.960938 409.980469 C 259.140625 409.980469 257.089844 412.59375 257.089844 417.210938 C 257.089844 419.878906 258.578125 422.085938 260.886719 422.085938 C 262.269531 422.085938 263.242188 421.777344 264.425781 421.109375 L 263.65625 426.957031 "/>
<path style=" stroke:none;fill-rule:evenodd;fill:rgb(95.3125%,68.164063%,7.054138%);fill-opacity:1;" d="M 283.453125 421.261719 C 283.199219 423.214844 282.941406 425.109375 282.789063 427.109375 L 277.710938 427.109375 L 278.121094 423.46875 L 278.070313 423.46875 C 276.480469 425.933594 274.839844 427.625 271.914063 427.625 C 268.734375 427.625 266.988281 424.238281 266.988281 419.878906 C 266.988281 418.339844 267.089844 417.519531 267.398438 415.160156 L 268.835938 404.695313 L 274.53125 404.695313 L 272.992188 415.210938 C 272.835938 416.339844 272.632813 417.46875 272.632813 418.648438 C 272.632813 419.980469 273.246094 421.316406 274.785156 421.210938 C 277.09375 421.210938 278.480469 418.390625 278.890625 415.058594 L 280.480469 404.695313 L 285.96875 404.695313 L 283.453125 421.261719 "/>
<path style=" stroke:none;fill-rule:evenodd;fill:rgb(95.3125%,68.164063%,7.054138%);fill-opacity:1;" d="M 390.304688 426.855469 L 389.433594 426.855469 L 389.433594 423.109375 L 388.203125 423.109375 L 388.203125 422.289063 L 391.535156 422.289063 L 391.535156 423.109375 L 390.304688 423.109375 L 390.304688 426.855469 "/>
<path style=" stroke:none;fill-rule:evenodd;fill:rgb(95.3125%,68.164063%,7.054138%);fill-opacity:1;" d="M 396 426.855469 L 395.179688 426.855469 L 395.179688 423.058594 L 394.410156 426.855469 L 393.589844 426.855469 L 392.820313 423.058594 L 392.820313 426.855469 L 392 426.855469 L 392 422.289063 L 393.28125 422.289063 L 394 425.878906 L 394.050781 425.878906 L 394.769531 422.289063 L 396 422.289063 L 396 426.855469 "/>
</g>
</svg>
